<?xml version="1.0" encoding="UTF-8" standalone="no"?>
<svg
   version="1.1"
   id="Capa_1"
   x="0px"
   y="0px"
   viewBox="-4 40 313.60097 233.60098"
   xml:space="preserve"
   sodipodi:docname="logo.svg"
   width="313.60098"
   height="233.601"
   inkscape:version="1.2 (dc2aedaf03, 2022-05-15)"
   xmlns:inkscape="http://www.inkscape.org/namespaces/inkscape"
   xmlns:sodipodi="http://sodipodi.sourceforge.net/DTD/sodipodi-0.dtd"
   xmlns="http://www.w3.org/2000/svg"
   xmlns:svg="http://www.w3.org/2000/svg"><defs
   id="defs65" /><sodipodi:namedview
   id="namedview63"
   pagecolor="#ffffff"
   bordercolor="#666666"
   borderopacity="1.0"
   inkscape:showpageshadow="2"
   inkscape:pageopacity="0.0"
   inkscape:pagecheckerboard="0"
   inkscape:deskcolor="#d1d1d1"
   showgrid="false"
   inkscape:zoom="2.7323208"
   inkscape:cx="2.0129408"
   inkscape:cy="144.19976"
   inkscape:window-width="1920"
   inkscape:window-height="1023"
   inkscape:window-x="0"
   inkscape:window-y="29"
   inkscape:window-maximized="1"
   inkscape:current-layer="Capa_1" />
<path
   id="path7206"
   style="fill:#ff4500;stroke:none;stroke-width:3;stroke-linecap:butt;stroke-linejoin:round;stroke-dasharray:none;stroke-opacity:1"
   d="m 144.11914,45.261719 -2.95117,4.894531 C 114.69203,94.228162 40.292614,209.53666 11.138672,219.30664 L 8.5683594,213.4043 0,217.14648 l 17.146484,39.47071 -0.595703,0.85156 h 0.976563 l 1.251953,2.87109 9.313439,-2.51346 77.678744,-0.35763 c -1.70303,-9.84443 -3.12695,-22.78835 -3.12695,-27.36719 0,-25.85194 20.96717,-46.84765 46.82813,-46.84765 25.89094,0 46.84765,20.97671 46.84765,46.84765 6.8e-4,4.57143 -1.01568,17.52909 -2.44922,27.36719 h 97.67188 l -0.96875,-1.21289 7.25976,1.21289 4.44532,-26.48828 0.45898,-0.84961 -0.29297,-0.20508 3.15625,-18.9043 -9.21289,-1.53515 -2.44336,14.59765 C 248.95441,188.50106 148.6043,51.34781 147.5293,49.882812 Z m 49.75195,212.207031 h -88.09961 c 0.81497,4.71094 1.66987,8.89136 2.50782,10.76953 l 83.32617,-0.0488 c 0.83586,-1.87027 1.58214,-6.03009 2.26562,-10.7207 z M 144.7168,58.947266 C 163.42678,84.34024 251.69928,202.68795 292.49023,232.54492 l -3.625,21.5918 L 145.70117,73.662109 23.447266,247.64844 14.15625,226.26172 C 49.221215,213.00373 128.15581,86.108238 144.7168,58.947266 Z"
   sodipodi:nodetypes="cccccccccccssccccccccccccccccccccccccc" />
</svg>
