<?xml version="1.0" standalone="no"?>
<!DOCTYPE svg PUBLIC "-//W3C//DTD SVG 20010904//EN"
 "http://www.w3.org/TR/2001/REC-SVG-20010904/DTD/svg10.dtd">
<svg version="1.0" xmlns="http://www.w3.org/2000/svg"
 width="1256.000000pt" height="1256.000000pt" viewBox="0 0 1256.000000 1256.000000"
 preserveAspectRatio="xMidYMid meet">
<metadata>
Created by potrace 1.14, written by Peter Selinger 2001-2017
</metadata>
<g transform="translate(0.000000,1256.000000) scale(0.100000,-0.100000)"
fill="#000000" stroke="none">
<path d="M5918 10708 c-7 -13 -17 -31 -23 -40 -5 -9 -22 -36 -36 -60 -25 -42
-203 -333 -240 -393 -10 -16 -22 -37 -26 -45 -4 -8 -11 -19 -16 -25 -10 -12
-51 -78 -52 -85 0 -3 -18 -32 -39 -65 -21 -33 -51 -80 -67 -105 -16 -25 -33
-50 -39 -57 -5 -7 -10 -15 -10 -19 0 -4 -20 -37 -45 -75 -25 -38 -45 -73 -45
-79 0 -5 -4 -10 -10 -10 -5 0 -10 -6 -10 -14 0 -8 -4 -16 -8 -18 -4 -1 -26
-32 -47 -68 -21 -36 -43 -66 -47 -68 -4 -2 -8 -8 -8 -14 0 -6 -18 -37 -40 -69
-22 -32 -40 -61 -40 -63 0 -2 -22 -37 -49 -78 -26 -40 -69 -106 -95 -145 -161
-253 -255 -397 -317 -491 -27 -40 -49 -77 -49 -81 0 -5 -3 -11 -7 -13 -5 -1
-33 -41 -63 -88 -30 -47 -63 -97 -75 -112 -11 -14 -33 -49 -50 -77 -16 -28
-33 -51 -37 -51 -5 0 -8 -5 -8 -10 0 -12 -41 -73 -52 -78 -5 -2 -8 -8 -8 -13
0 -11 -42 -72 -52 -77 -5 -2 -8 -10 -8 -18 0 -8 -4 -14 -10 -14 -5 0 -10 -5
-10 -10 0 -6 -12 -28 -27 -49 -16 -21 -34 -47 -41 -57 -6 -11 -44 -65 -82
-121 -39 -57 -70 -107 -70 -112 0 -5 -4 -11 -9 -13 -7 -3 -138 -189 -166 -236
-5 -9 -13 -19 -16 -22 -3 -3 -40 -56 -82 -117 -89 -130 -252 -363 -265 -378
-5 -6 -17 -24 -28 -40 -10 -17 -21 -32 -24 -35 -3 -3 -13 -16 -22 -30 -9 -14
-57 -81 -107 -150 -50 -69 -96 -133 -103 -144 -7 -10 -24 -33 -38 -51 -14 -17
-33 -43 -42 -56 -60 -82 -210 -286 -221 -299 -6 -9 -32 -42 -57 -75 -24 -33
-49 -65 -55 -71 -5 -6 -17 -22 -25 -34 -25 -37 -84 -113 -107 -140 -13 -14
-23 -28 -23 -31 0 -3 -10 -17 -23 -31 -12 -14 -31 -38 -41 -52 -11 -15 -27
-35 -35 -46 -33 -38 -76 -93 -85 -109 -5 -9 -18 -25 -29 -36 -10 -11 -31 -36
-45 -55 -15 -19 -29 -37 -32 -40 -3 -3 -23 -27 -45 -55 -21 -27 -44 -54 -50
-60 -6 -5 -26 -30 -45 -55 -19 -25 -37 -47 -40 -50 -5 -4 -143 -168 -175 -207
-5 -7 -26 -30 -45 -52 -19 -21 -60 -67 -90 -101 -59 -68 -65 -74 -216 -237
-98 -104 -239 -246 -316 -315 -20 -18 -53 -49 -75 -68 -63 -58 -206 -172 -241
-193 -17 -10 -32 -23 -32 -28 0 -5 -4 -9 -9 -9 -6 0 -31 -14 -56 -31 -43 -29
-182 -101 -215 -111 -11 -3 -28 26 -65 113 l-51 118 -64 -28 c-36 -15 -86 -37
-112 -49 -26 -12 -49 -22 -51 -22 -3 0 -30 -11 -60 -25 l-56 -26 16 -37 c8
-20 24 -57 35 -82 11 -25 26 -60 34 -77 8 -18 20 -48 28 -65 8 -18 23 -53 34
-78 11 -25 32 -74 47 -110 15 -36 31 -69 36 -74 5 -6 9 -16 9 -23 0 -7 13 -40
29 -72 16 -33 26 -62 23 -65 -3 -4 0 -6 6 -6 7 0 11 -3 10 -8 -1 -4 8 -29 20
-56 12 -27 22 -51 22 -54 0 -3 16 -38 35 -79 19 -41 35 -80 35 -87 0 -8 7 -19
15 -26 8 -7 15 -18 14 -24 -2 -9 17 -56 61 -151 57 -125 107 -245 102 -249 -3
-3 0 -6 6 -6 7 0 11 -3 10 -7 -1 -5 11 -35 26 -68 18 -39 26 -68 22 -87 -4
-20 -2 -26 8 -22 12 5 56 -70 56 -95 0 -22 20 -20 140 14 8 2 51 13 95 25 44
11 92 25 106 31 18 7 333 12 950 14 508 3 926 5 929 6 3 1 9 1 14 0 10 -2 84
-1 244 2 56 1 102 -1 102 -5 0 -4 12 -3 26 2 18 7 23 7 18 -2 -4 -7 -3 -8 5
-4 17 11 211 13 211 3 0 -4 6 -5 12 -1 7 5 153 8 325 9 273 0 314 -1 318 -15
4 -14 6 -25 19 -100 14 -84 35 -179 43 -200 3 -8 7 -19 8 -25 3 -24 18 -71 26
-80 5 -7 558 -10 1669 -10 1440 1 1663 3 1671 16 8 13 24 64 36 114 4 19 6 31
17 95 3 14 5 27 6 30 1 3 3 10 4 15 15 89 20 123 20 140 1 20 8 20 1954 20
1073 0 1952 2 1952 4 0 3 -8 13 -17 24 -18 19 -17 19 22 14 22 -3 51 -8 65
-11 14 -3 43 -7 65 -10 22 -3 59 -9 82 -12 40 -5 41 -5 49 28 4 18 8 44 9 58
1 14 5 39 8 55 4 17 9 46 12 65 3 19 10 62 16 95 6 33 12 69 14 80 1 11 6 36
9 55 4 19 9 51 11 70 2 19 7 46 10 60 3 14 8 41 11 60 2 19 7 46 10 60 6 31
12 64 18 110 2 20 7 47 10 60 3 14 8 41 11 60 2 19 6 44 8 55 3 11 8 39 12 63
4 23 11 42 17 42 7 0 7 5 -1 13 -6 8 -9 16 -7 18 2 2 7 24 10 49 3 25 8 55 10
66 7 34 17 97 21 124 2 14 6 36 9 50 4 14 8 43 11 65 2 22 7 51 10 65 5 24 31
175 41 235 2 17 7 42 10 57 3 14 2 28 -3 31 -8 5 -63 15 -118 22 -16 2 -41 7
-55 10 -14 3 -45 8 -70 11 -25 3 -53 8 -62 10 -10 2 -27 6 -38 8 -14 3 -20 -1
-21 -12 -1 -18 -4 -33 -8 -42 -1 -3 -4 -21 -7 -40 -2 -19 -7 -46 -10 -60 -4
-14 -8 -41 -10 -60 -1 -19 -5 -48 -9 -65 -15 -77 -27 -143 -30 -170 -1 -16 -6
-46 -10 -65 -4 -19 -8 -41 -8 -47 0 -7 -3 -13 -6 -13 -6 0 -112 84 -162 128
-7 7 -26 22 -40 35 -52 45 -204 184 -270 247 -38 36 -74 70 -81 76 -50 43
-616 631 -677 704 -12 14 -41 45 -64 70 -24 25 -84 90 -133 145 -49 55 -119
134 -156 175 -36 41 -76 86 -88 100 -41 48 -125 143 -148 166 -13 13 -21 24
-18 24 2 0 -17 23 -44 50 -27 28 -46 50 -44 50 3 0 -11 17 -30 38 -35 37 -55
60 -90 104 -11 12 -33 39 -50 59 -17 19 -52 60 -78 90 -25 29 -54 64 -65 76
-20 24 -16 19 -127 153 -44 52 -82 97 -85 100 -3 3 -24 28 -45 55 -22 28 -47
57 -55 66 -9 9 -23 25 -31 35 -54 67 -96 121 -105 131 -5 7 -23 28 -40 47 -16
18 -37 42 -45 53 -13 16 -68 85 -110 137 -8 10 -20 23 -25 30 -6 6 -46 56 -90
111 -44 55 -82 102 -85 105 -3 3 -23 28 -45 55 -22 28 -45 57 -52 65 -7 8 -36
44 -64 80 -28 36 -64 81 -80 100 -16 19 -52 64 -80 100 -28 36 -61 76 -73 90
-11 14 -37 46 -56 70 -19 25 -40 52 -47 60 -7 8 -67 85 -134 170 -67 85 -131
167 -143 181 -11 15 -30 39 -41 54 -11 16 -25 33 -30 39 -6 6 -26 31 -45 56
-19 25 -37 47 -40 50 -3 3 -18 23 -35 45 -16 22 -34 45 -40 51 -5 7 -18 23
-27 36 -17 23 -231 298 -286 367 -15 18 -31 41 -36 50 -5 9 -14 21 -20 27 -22
23 -64 79 -63 84 1 3 -10 16 -23 30 -14 14 -36 41 -50 60 -14 18 -65 86 -115
151 -49 65 -99 129 -109 144 -17 23 -31 41 -64 80 -5 6 -17 24 -28 40 -10 17
-24 35 -30 40 -6 6 -37 45 -68 87 -30 43 -62 86 -70 95 -8 10 -38 50 -67 88
-29 39 -59 76 -65 83 -7 6 -16 21 -19 32 -3 11 -10 20 -14 20 -4 0 -25 26 -47
58 -21 31 -49 68 -62 82 -13 14 -31 37 -40 53 -9 15 -20 27 -24 27 -4 0 -8 6
-8 13 0 6 -12 26 -26 42 -14 17 -34 40 -45 53 -10 12 -19 24 -19 26 0 2 -56
80 -125 173 -69 92 -133 179 -143 192 -9 14 -41 55 -69 93 -29 38 -53 71 -53
74 0 3 -6 11 -12 18 -7 8 -20 24 -28 36 -22 32 -47 60 -53 60 -4 0 -12 -10
-19 -22z m52 -525 c0 -5 9 -19 20 -33 12 -14 59 -77 106 -140 46 -63 90 -122
97 -130 7 -8 23 -31 37 -50 13 -19 28 -39 33 -45 4 -5 53 -71 108 -145 55 -74
108 -144 117 -155 10 -11 37 -48 61 -82 24 -35 48 -63 52 -63 5 0 9 -7 9 -15
0 -8 5 -15 10 -15 6 0 10 -6 10 -14 0 -8 7 -17 16 -20 8 -3 13 -10 10 -15 -4
-5 -2 -11 3 -13 5 -1 43 -48 85 -103 84 -111 77 -103 129 -167 20 -25 37 -49
37 -52 0 -6 13 -23 62 -79 15 -18 28 -35 28 -39 0 -4 6 -13 13 -20 7 -7 68
-85 135 -173 68 -88 128 -167 135 -175 7 -8 26 -33 42 -55 17 -22 86 -112 155
-200 69 -88 150 -193 180 -232 30 -40 58 -73 62 -73 5 0 8 -5 8 -11 0 -5 13
-24 30 -42 16 -18 30 -35 30 -39 0 -5 8 -16 18 -27 31 -32 70 -81 66 -81 -2 0
4 -9 14 -19 26 -29 76 -92 86 -110 5 -9 15 -20 21 -26 6 -5 27 -30 46 -55 37
-49 49 -64 64 -83 7 -9 518 -647 580 -725 5 -7 19 -23 30 -35 11 -12 34 -40
50 -62 17 -22 33 -42 37 -45 4 -3 20 -22 35 -42 72 -92 180 -223 216 -260 9
-10 17 -21 17 -24 0 -3 6 -11 13 -18 6 -7 48 -56 92 -109 44 -53 83 -97 87
-97 5 0 8 -5 8 -11 0 -6 6 -16 13 -23 6 -7 30 -34 52 -61 22 -27 54 -64 72
-82 17 -18 29 -33 26 -33 -3 0 4 -8 15 -19 12 -10 22 -21 22 -24 0 -4 12 -19
28 -35 15 -16 43 -48 64 -73 20 -24 48 -57 62 -74 15 -16 37 -43 49 -58 12
-15 38 -45 57 -66 19 -21 51 -57 71 -82 21 -24 48 -55 60 -70 13 -14 47 -51
74 -84 28 -32 55 -63 61 -69 5 -6 32 -36 59 -66 26 -30 79 -89 116 -131 38
-41 78 -86 89 -100 12 -13 58 -64 103 -113 45 -49 95 -103 110 -120 75 -82
244 -261 354 -375 68 -69 123 -126 123 -127 0 -2 213 -210 297 -291 73 -70
186 -174 248 -228 12 -11 38 -33 56 -50 29 -26 142 -120 189 -158 8 -7 43 -34
78 -60 34 -27 60 -51 58 -55 -2 -4 -7 -23 -10 -42 -3 -19 -8 -46 -11 -60 -2
-14 -7 -41 -9 -60 -3 -19 -8 -46 -10 -60 -3 -14 -12 -68 -21 -120 -8 -52 -17
-104 -19 -115 -2 -11 -7 -40 -10 -65 -3 -25 -8 -56 -11 -70 -9 -42 -14 -73
-20 -115 -3 -22 -10 -64 -16 -92 l-10 -53 -77 98 c-42 53 -83 102 -92 109 -8
7 -11 13 -7 13 5 0 2 6 -5 14 -21 22 -48 55 -128 156 -40 52 -79 100 -85 106
-5 6 -46 58 -90 114 -44 56 -87 111 -95 121 -8 10 -26 33 -40 51 -14 18 -33
40 -42 50 -10 10 -18 21 -18 24 0 3 -6 12 -12 19 -17 18 -38 45 -149 185 -50
63 -103 131 -119 150 -15 19 -51 64 -79 100 -28 36 -62 77 -76 93 -14 15 -25
31 -25 36 0 5 -8 15 -17 22 -9 8 -28 31 -43 51 -15 20 -43 56 -63 80 -19 24
-83 104 -141 178 -58 74 -117 147 -131 163 -14 15 -25 31 -25 36 0 5 -3 11 -7
13 -9 3 -43 44 -83 98 -14 18 -38 50 -55 70 -16 20 -43 54 -60 75 -57 73 -80
100 -87 103 -5 2 -8 10 -8 17 0 7 -4 15 -8 17 -5 2 -72 84 -151 183 -78 99
-150 189 -159 200 -9 11 -42 52 -72 90 -30 39 -58 72 -62 73 -5 2 -8 10 -8 18
0 8 -3 14 -7 14 -5 0 -39 41 -78 91 -38 50 -85 108 -102 128 -18 20 -33 39
-33 43 0 4 -6 13 -13 20 -7 7 -30 35 -52 63 -22 27 -44 55 -50 61 -5 6 -21 26
-35 44 -75 99 -194 245 -201 248 -5 2 -9 10 -9 17 0 7 -3 15 -8 17 -12 5 -172
208 -172 218 0 4 -4 10 -9 12 -5 2 -48 53 -95 113 -48 61 -94 119 -104 130
-10 11 -40 49 -67 85 -28 35 -57 73 -67 85 -9 11 -31 38 -50 61 -18 22 -44 56
-58 74 -25 34 -66 86 -85 106 -15 17 -37 45 -70 89 -16 22 -35 47 -42 55 -6 8
-28 35 -48 60 -56 70 -58 72 -95 120 -19 25 -37 47 -40 50 -3 3 -28 34 -55 70
-28 36 -60 75 -72 87 -13 12 -23 26 -23 30 0 5 -10 19 -23 33 -12 14 -60 72
-105 130 -46 58 -88 112 -95 120 -11 13 -70 88 -127 160 -58 73 -116 147 -127
160 -7 8 -60 75 -118 149 -58 73 -112 139 -118 146 -7 7 -37 45 -67 85 -112
146 -322 409 -347 436 -7 7 -13 15 -13 19 0 4 -6 12 -12 20 -7 7 -20 21 -28
32 -8 10 -26 32 -40 49 -14 17 -36 45 -50 64 -14 18 -49 63 -78 99 -30 36 -63
78 -75 93 -12 16 -29 36 -37 47 -8 10 -58 73 -110 139 -52 66 -98 118 -101
116 -6 -3 -90 -121 -262 -367 -31 -45 -63 -90 -70 -99 -6 -9 -39 -55 -72 -103
-33 -47 -113 -161 -178 -253 -64 -92 -122 -174 -127 -182 -6 -8 -45 -64 -88
-123 -42 -60 -81 -116 -87 -125 -5 -9 -14 -22 -20 -28 -5 -7 -25 -34 -43 -61
-18 -26 -67 -95 -107 -153 -41 -58 -79 -112 -85 -120 -27 -41 -180 -257 -189
-267 -6 -7 -11 -14 -11 -17 0 -2 -43 -64 -95 -138 -52 -73 -99 -140 -105 -148
-24 -36 -94 -135 -99 -140 -3 -3 -10 -12 -16 -21 -15 -25 -38 -58 -191 -274
-77 -110 -167 -238 -199 -285 -32 -47 -61 -87 -65 -90 -3 -3 -30 -42 -60 -87
-30 -46 -58 -83 -62 -83 -5 0 -8 -7 -8 -15 0 -8 -4 -15 -10 -15 -5 0 -10 -7
-10 -15 0 -8 -3 -15 -7 -15 -5 0 -15 -12 -25 -28 -9 -15 -44 -65 -77 -112 -34
-47 -64 -92 -68 -100 -4 -8 -12 -21 -19 -30 -25 -30 -80 -106 -109 -150 -16
-25 -39 -57 -50 -71 -11 -14 -27 -36 -35 -49 -8 -13 -26 -36 -38 -51 -13 -16
-20 -29 -15 -29 4 0 3 -4 -3 -8 -6 -4 -67 -88 -136 -187 -69 -99 -133 -188
-142 -197 -9 -10 -16 -20 -16 -22 0 -3 -37 -57 -83 -122 -136 -194 -194 -276
-244 -349 -48 -71 -58 -84 -80 -110 -7 -7 -13 -16 -13 -20 0 -8 -81 -118 -93
-126 -5 -3 -8 -8 -6 -10 3 -4 -35 -59 -143 -209 -32 -44 -58 -84 -58 -89 0 -5
-4 -11 -8 -13 -4 -1 -39 -48 -78 -102 -38 -55 -98 -141 -134 -192 -36 -51
-105 -151 -154 -221 -49 -70 -92 -130 -96 -133 -3 -3 -30 -42 -60 -87 -30 -46
-58 -83 -62 -83 -4 0 -8 -7 -8 -15 0 -8 -8 -22 -18 -32 -10 -10 -30 -36 -45
-58 -26 -38 -45 -66 -167 -239 -30 -43 -59 -86 -65 -95 -5 -9 -13 -18 -16 -21
-3 -3 -30 -41 -61 -85 -52 -76 -79 -115 -158 -227 -37 -52 -47 -58 -57 -30 -6
18 -81 195 -115 272 -11 25 -26 60 -34 78 -8 17 -20 47 -28 65 -8 17 -23 52
-34 77 -11 25 -34 79 -52 120 -17 41 -42 98 -54 125 -42 92 -45 86 43 127 67
32 193 104 226 131 6 4 35 26 65 48 266 194 574 488 935 895 39 43 81 91 95
106 14 16 30 34 35 41 76 91 130 153 137 155 4 2 8 10 8 17 0 7 4 15 9 17 4 2
26 24 47 49 41 48 60 71 174 214 39 50 76 92 81 93 5 2 9 8 9 14 0 5 6 15 13
23 17 18 38 44 72 90 16 22 32 42 35 45 3 3 21 25 40 50 19 25 37 47 40 50 3
3 17 21 30 40 13 19 27 37 30 40 3 3 39 50 80 105 41 55 77 102 80 105 3 3 37
48 75 100 39 52 73 100 78 105 4 6 21 28 37 50 16 22 33 45 38 50 4 6 19 26
32 45 13 19 28 40 33 45 22 28 233 321 373 520 46 66 91 128 99 137 7 9 19 27
26 39 6 13 16 28 21 33 26 31 248 357 248 365 0 5 7 12 16 15 8 3 13 10 10 15
-4 5 -2 11 3 13 5 1 136 192 290 423 155 231 286 427 291 435 47 69 137 210
134 210 -3 0 4 9 14 20 10 11 25 33 33 48 8 15 16 29 19 32 12 11 190 288 190
296 0 2 9 14 20 26 11 12 26 34 32 50 7 15 16 28 20 28 5 0 8 4 8 10 0 5 17
35 39 67 21 32 54 83 73 113 84 133 98 156 108 167 5 7 10 15 10 18 0 4 14 26
30 50 17 24 30 48 30 53 0 6 4 12 8 14 4 2 25 30 45 63 21 33 42 67 47 75 91
142 200 323 200 331 0 5 3 9 8 9 4 0 16 17 27 38 11 20 30 51 42 68 13 17 23
34 23 37 0 3 14 26 30 50 17 25 30 50 30 56 0 12 20 16 20 4z m381 -4977 c31
-4 65 -8 75 -10 11 -2 39 -7 64 -11 128 -21 325 -83 433 -136 31 -15 57 -25
57 -21 0 4 4 3 8 -3 4 -5 32 -23 62 -39 97 -51 235 -145 314 -214 56 -50 211
-207 247 -252 47 -59 159 -226 159 -239 0 -5 4 -11 8 -13 7 -3 96 -174 98
-188 0 -3 8 -23 18 -45 10 -22 19 -44 20 -50 2 -5 14 -48 29 -95 40 -131 59
-223 73 -360 8 -71 11 -370 4 -370 -3 0 -6 -24 -6 -53 -2 -76 -14 -236 -29
-387 -2 -19 -6 -62 -9 -95 -3 -33 -8 -73 -10 -90 -2 -16 -9 -70 -15 -120 -16
-124 -22 -159 -27 -164 -3 -3 -795 -5 -1761 -5 l-1757 0 -8 29 c-4 17 -10 50
-13 75 -3 25 -9 66 -13 91 -5 26 -8 56 -7 68 1 11 -1 21 -5 21 -3 0 -7 19 -9
43 -2 38 -8 82 -11 82 -1 0 -5 33 -14 125 -4 35 -14 120 -21 175 -2 17 -7 71
-10 120 -4 50 -8 106 -11 125 -9 65 -3 291 10 390 7 57 45 237 56 265 5 14 7
25 4 25 -2 0 2 14 11 30 9 17 12 30 8 30 -4 0 -2 5 5 12 7 7 12 18 12 25 0 7
11 36 24 65 25 57 39 90 40 98 7 31 161 281 213 345 74 90 94 112 154 173 36
37 79 78 95 92 48 42 167 134 185 145 10 6 53 31 96 57 43 26 82 47 87 47 5
-1 12 3 15 8 7 10 53 33 121 59 25 9 49 21 54 26 6 4 16 8 22 8 7 0 25 5 41
12 15 6 33 12 38 13 6 2 42 12 80 23 96 28 242 55 255 47 5 -3 10 -2 10 3 0 5
9 8 20 7 11 -1 39 1 63 5 53 7 273 5 348 -4z"/>
</g>
</svg>
